<svg role="img" viewBox="0 0 24 24" xmlns="http://www.w3.org/2000/svg"><title>OpenMetadata</title><g fill="#FF6B35"><circle cx="12" cy="12" r="2.25"/><path d="M12 6.75a5.25 5.25 0 0 0-5.25 5.25 5.25 5.25 0 0 0 5.25 5.25 5.25 5.25 0 0 0 5.25-5.25A5.25 5.25 0 0 0 12 6.75zm0 1.5a3.75 3.75 0 0 1 3.75 3.75A3.75 3.75 0 0 1 12 15.75 3.75 3.75 0 0 1 8.25 12 3.75 3.75 0 0 1 12 8.25z"/><path d="M12 2.25A9.75 9.75 0 0 0 2.25 12 9.75 9.75 0 0 0 12 21.75 9.75 9.75 0 0 0 21.75 12 9.75 9.75 0 0 0 12 2.25zm0 1.5a8.25 8.25 0 0 1 8.25 8.25A8.25 8.25 0 0 1 12 20.25 8.25 8.25 0 0 1 3.75 12 8.25 8.25 0 0 1 12 3.75z"/></g></svg>
